<svg width="203" height="223" viewBox="0 0 203 223" fill="none" xmlns="http://www.w3.org/2000/svg">
<path d="M84.5574 119.077C90.2471 115.032 102.047 109.189 107.236 106.773L120.818 108.305C123.074 109.327 127.243 112.012 125.868 114.572C124.15 117.772 116.928 123.317 114.594 124.84C112.727 126.058 89.7895 131.878 78.5542 134.636C78.7227 135.358 79.0663 137.213 79.0922 138.859C79.1246 140.917 77.4454 161.554 76.7841 164.48C76.255 166.821 76.5334 168.524 76.7386 169.083L80.0839 171.89L68.5892 183.133L69.3608 179.719C69.8016 177.768 73.2375 171.368 73.4579 170.392C73.6783 169.417 71.8958 131.081 72.6997 129.725C73.5036 128.369 77.4454 124.134 84.5574 119.077Z" fill="#4B2C36"/>
<path d="M126.117 52.9056C125.968 51.4129 127.613 47.7324 131.844 44.8C131.513 44.8329 130.83 44.6997 130.751 43.9036C130.652 42.9085 132.145 42.7603 133.638 42.6121C135.13 42.4639 135.13 42.4639 140.155 42.4674C145.18 42.471 149.157 47.1007 149.256 48.0958C149.355 49.0909 150.745 52.9726 150.096 56.5542C149.576 59.4196 147.788 60.3006 146.959 60.3829C146.809 60.5652 146.819 60.9997 148.052 61.2792C149.595 61.6286 153.97 65.2138 156.257 68.0015C158.543 70.7892 158.243 72.8288 159.486 75.2178C160.479 77.129 160.292 83.3445 160.075 86.2134C159.976 85.2183 159.649 82.9394 159.133 81.7848C158.487 80.3415 151.923 74.9637 152.17 77.4515C152.368 79.4417 154.507 80.7367 155.551 81.1355C154.058 81.2837 151.373 79.5405 149.436 75.2107C147.498 70.8809 149.34 69.1907 148.497 65.7572C147.654 62.3237 142.131 62.3696 141.732 63.4141C141.413 64.2497 141.863 66.4159 142.128 67.3945L142.971 70.828C143.502 71.1103 144.483 71.8838 144.164 72.7194C144.129 72.8112 144.098 72.8676 144.072 72.9002C144.261 73.1124 144.773 74.2574 145.801 79.0888C147.685 87.946 139.717 98.7863 137.673 103.511C136.038 107.291 125.376 116.289 120.249 120.315L102.884 122.542C101.326 122.027 96.9949 120.916 92.1393 120.594C86.0699 120.192 69.7106 107.245 69.8095 108.24C69.9083 109.235 66.7218 112.566 64.9292 114.754C63.1366 116.942 49.3991 125.34 47.9559 125.986C46.8013 126.502 44.1554 129.88 42.9768 131.505C39.0152 128.716 31.0722 122.939 30.9932 122.143C30.9142 121.347 31.8566 120.717 32.3377 120.502C32.9175 121.282 34.4852 122.902 36.1169 123.142C38.1566 123.441 42.8321 124.987 43.8273 124.888C44.6233 124.809 47.2784 122.536 48.5064 121.409L65.2362 102.664C65.7173 102.449 67.5553 101.731 71.0586 100.579C75.4378 99.139 85.1877 101.186 88.1731 100.889C91.1584 100.593 109.515 103.292 111.505 103.095C113.495 102.897 116.682 99.5661 117.43 96.9795C118.178 94.3929 119.427 86.732 119.23 84.7418C119.032 82.7516 121.869 80.9625 121.82 80.465C121.78 80.0669 107.18 74.7166 99.885 72.0912L93.9133 72.6841C91.9222 72.8818 77.2326 68.3109 70.1366 66.0007L67.6499 66.2476C66.6548 66.3464 65.4621 64.4549 64.9141 64.0069C64.4757 63.6485 60.8858 62.2295 59.1457 61.5649C60.6875 61.9143 63.6519 62.4239 63.1748 61.6673C62.5785 60.7216 59.1485 56.54 59.6461 56.4906C60.1437 56.4412 64.6671 61.5191 64.6177 61.0216C64.5683 60.524 60.8913 53.8547 61.4383 54.3028C61.8758 54.6614 64.7024 58.5009 66.0609 60.3758L65.7645 57.3905C65.6855 56.5944 65.0881 53.9405 64.774 52.4643C65.2727 52.4148 66.6125 55.7989 66.7113 56.794C66.8451 58.1418 66.8101 57.7891 67.5547 60.2275C67.5547 60.2275 68.0511 60.1782 68.0017 59.6807C67.8832 58.4865 69.0815 57.0612 69.6955 56.4977C69.5956 57.1776 69.445 59.0349 69.6426 61.0251C69.8896 63.5129 71.4317 63.8622 74.417 63.5658C77.4023 63.2694 89.1425 65.1185 93.1723 65.2208C97.2021 65.3232 99.9863 68.0615 102.474 67.8145C104.962 67.5675 121.279 69.9671 124.264 69.6706L134.215 68.6826C135.409 68.5641 134.449 65.9796 133.82 64.7022L127.352 65.3444C125.362 65.542 124.518 62.1085 124.37 60.6159C124.222 59.1232 125.019 57.0342 123.975 56.6355C122.93 56.2367 122.831 55.2416 123.777 54.6452C124.723 54.0489 126.265 54.3982 126.117 52.9056Z" fill="#4B2C36"/>
<path d="M113.047 69.6685C114.223 69.4279 124.344 74.1615 129.258 76.5584L138.654 72.5942L114.695 65.2485C114.038 64.5323 112.488 62.9441 111.544 62.3208C110.364 61.5416 92.5058 59.0716 92.016 59.1719C91.6241 59.2521 91.1252 57.3127 90.9247 56.333L94.0529 54.1618L91.214 55.2531L93.5517 51.7125L90.0339 54.4739L91.2916 50.644C90.8017 50.7442 89.4438 54.0843 88.8537 53.6947C88.3816 53.383 88.1892 51.2788 88.152 50.2657C87.9205 51.1297 88.0707 54.025 88.1747 55.3647C87.6224 54.6611 86.4379 54.3592 85.9146 54.2961C86.7785 54.5276 89.4961 58.4967 90.7469 60.4523C92.2871 61.328 95.7014 63.2151 97.0374 63.7583C98.7075 64.4372 111.578 69.9692 113.047 69.6685Z" fill="#4B2C36"/>
<path d="M126.085 127.67C123.671 132.346 115.689 133.498 112 133.49C115.952 133.762 122.404 132.342 124.81 131.462C127.215 130.582 129.362 123.145 129.109 118.665C129.107 119.718 128.499 122.995 126.085 127.67Z" fill="#4B2C36"/>
<path d="M132.321 132.29C130.379 135.947 123.694 136.713 120.595 136.638C123.92 136.926 129.315 135.921 131.319 135.268C133.324 134.615 134.992 128.767 134.697 125.215C134.714 126.049 134.263 128.632 132.321 132.29Z" fill="#4B2C36"/>
</svg>
