<svg width="1200" height="750" viewBox="0 0 1200 750" fill="none" xmlns="http://www.w3.org/2000/svg">
<g clip-path="url(#clip0_603_828)">
<rect width="1200" height="750" fill="#98C1D9"/>
<path d="M447.5 324.499C431.1 322.499 114 350.999 -42.5 365.499L-138 388.5L-162 785H1260.5V339.5L1049 296L690.5 268L632.5 260C631.667 258.333 629.5 254.1 627.5 250.5C625 246 620 246 616.5 246C613 246 612.5 248 609 253C606.2 257 607.833 264.667 609 268C606.833 265.833 601.9 262.8 599.5 268C596.5 274.5 604.5 278 602.5 279C600.5 280 595.5 276 589.5 276C583.672 276 583.505 278.359 583.042 284.91L583 285.5C582.5 292.5 587 308.5 591.5 310.5C596 312.5 594 316.001 593.5 318.5C593 320.999 577 315.501 573 316.001C569 316.501 567.5 324.499 564 324.499C560.5 324.499 554 320.5 550.5 318.5C547 316.5 536 320 534 326.5C532 333 515 336 510 336C505 336 502 326.5 494 326.5C486 326.5 480.5 339.5 473 339.5C465.5 339.5 468 326.999 447.5 324.499Z" fill="#388659"/>
<path d="M337.5 539C317.1 546.6 100.667 655.167 -5 708.5V751H148.5C183 723.333 265.5 660.9 319.5 632.5C387 597 566.5 525 574 523.5C581.5 522 610.5 500.5 610.5 483.5C610.5 466.501 580.5 450.5 571.5 447.5C562.5 444.5 511.5 434.5 508.5 425C505.5 415.5 527 410 541 404C552.2 399.2 666.5 382.5 707 391.5V372C700 371.667 627.7 371.2 610.5 372C589 373 528 381 501 384.5C474 388 421 411 418 419C415 427 437.5 447 449 451.5C460.5 456 516 464.5 518.5 483.5C521 502.5 363 529.5 337.5 539Z" fill="#8D6345"/>
<path d="M487 719.5C475.8 733.1 491.667 744.5 501 748.5H735.5C740 743.333 750.4 730.3 756 719.5C763 706 749 687 735.5 680C722 673 718 685 712.5 687C708.1 688.6 702 678.667 699.5 673.5L749 556L643.5 511.5C632 512.167 607.3 514.3 600.5 517.5C592 521.5 575.5 538.5 566.5 556C557.5 573.5 568 570.5 566.5 576.5C565 582.5 538 586.5 531.5 594.5C526.299 600.9 524.666 619.833 524.5 628.5C522 628.5 514.8 629.3 506 632.5C495 636.5 479.5 648.5 483.5 673.5C486.7 693.5 516.833 697.167 531.5 696.5C531.5 709 501 702.5 487 719.5Z" fill="#52AA5E"/>
<path d="M641.761 731.782C652.196 731.782 651.46 755.927 649.788 768L713 758.633L685.407 721.166C682.397 715.754 675.976 703.931 674.37 699.934C672.364 694.939 677.882 685.572 678.886 680.576C679.688 676.58 683.568 671.001 685.407 668.712C683.902 669.753 679.989 672.833 676.377 676.83C671.862 681.825 670.357 693.69 668.35 693.69C666.343 693.69 663.835 690.568 663.835 685.572C663.835 680.576 665.34 678.079 663.835 668.712C662.33 659.345 660.323 651.227 658.818 648.105C657.614 645.607 646.945 631.661 641.761 625C646.276 633.534 655.708 651.602 657.313 655.598C659.32 660.594 657.815 683.699 657.313 685.572C656.811 687.445 648.283 674.332 641.761 671.834C635.239 669.336 626.209 668.712 621.694 668.712C617.178 668.712 585.572 664.341 581.057 663.716C577.445 663.217 568.181 656.431 564 653.1C568.013 657.888 577.044 667.713 581.057 668.712C586.074 669.961 629.721 674.332 632.731 674.332C635.741 674.332 658.316 695.563 663.835 709.301C668.25 720.292 659.989 724.288 655.306 724.913H621.694C616.877 724.913 597.613 729.492 588.582 731.782H641.761Z" fill="#4B2C36"/>
<path d="M115 390C89.8 391.2 40.8333 417.5 19.5 430.5L-32 346L-57 48L-22.5 -15H437.5C451.167 -10.3333 480.3 5.9 487.5 33.5C496.5 68 486 107 478.5 129C471 151 402.5 188.499 392 188.499C381.5 188.499 362 187.499 355 188.499C348 189.499 342 200.499 350 208.499C358 216.499 358.5 224.999 357.5 234.5C356.5 244.002 342 249.499 329 249.499C316 249.499 311.5 237 298 227.5C284.5 218 262 230 258 234.5C254 239 253 270.5 258 273.5C263 276.5 276.5 311 275.5 330C274.5 349 245 355.5 231 369.5C217 383.5 146.5 388.5 115 390Z" fill="#52AA5E"/>
<path d="M103.485 53.8789C107.996 71.9202 110.5 83.9612 110.5 121C110.5 149.584 122.049 188.326 128.373 205.71L128.969 207.325L128.977 207.348L128.983 207.372C129.356 208.779 129.82 210.321 130.305 211.629C130.547 212.283 130.793 212.873 131.031 213.354C131.274 213.844 131.494 214.189 131.676 214.382C131.721 214.429 131.756 214.459 131.781 214.479C131.793 214.463 131.81 214.444 131.826 214.416C131.887 214.311 131.957 214.146 132.026 213.898C132.31 212.892 132.5 210.902 132.5 207.5C132.5 198.922 135.257 186.388 139.003 174.018C142.752 161.636 147.512 149.358 151.553 141.276C158.606 127.17 167.732 121.359 175.948 120.503L177.499 120.341L176.331 121.374C173.147 124.19 169.65 129.192 166.172 135.469C162.701 141.734 159.272 149.23 156.215 156.996C150.095 172.545 145.495 189.109 144.999 199.025C144.503 208.956 146.368 216.607 149.187 221.631C152.021 226.683 155.734 228.961 158.93 228.505C159.315 228.45 159.994 228.259 160.962 227.928C161.919 227.6 163.128 227.146 164.558 226.579C167.417 225.446 171.146 223.872 175.488 221.986C184.171 218.215 195.293 213.201 206.793 207.982C229.781 197.55 254.301 186.291 263.816 182.535C265.648 181.812 267.892 180.371 270.464 178.325C273.03 176.284 275.897 173.661 278.974 170.599C285.126 164.473 292.094 156.612 299.129 148.18C313.198 131.317 327.515 112.202 336.094 100.209L337 98.9414V100.5C337 106.746 334.396 114.326 330.224 122.396C326.045 130.477 320.264 139.102 313.85 147.454C311.138 150.985 308.31 154.467 305.44 157.843C331.334 154.307 368.509 149.922 379.5 151.24C392.7 152.824 403 155.857 406.5 157.177C398.833 156.297 381.2 155.065 372 157.177C364.478 158.903 323.692 165.889 293.577 170.965C286.855 177.951 280.45 183.864 275.309 187.894C270.643 191.551 261.791 196.664 250.88 202.373C239.957 208.089 226.934 214.42 213.899 220.516C187.835 232.704 161.694 243.961 152.173 247.469C136.209 253.35 124.657 265.876 115.768 278.611C111.325 284.976 107.558 291.379 104.237 297.017C102.773 299.502 101.389 301.843 100.075 303.967C105.06 299.471 110.081 295.239 114 293.498C163.5 271.505 173.5 283.5 183.5 283C193.5 282.5 216 294.201 220 296C223.32 297.493 172 281.049 151 288C137.315 292.529 106.355 311.503 87.1768 326.215C86.7298 327.189 86.2694 328.204 85.7979 329.261C81.3831 339.15 75.9179 352.601 69.8564 369.14C57.7336 402.217 43.2308 447.638 29.9854 501.619C19.406 544.735 20.5249 593.666 26.2334 637.335C31.9414 681 42.2332 719.367 49.9717 741.334L50.2061 742H-56.5781L-56.4951 741.428L-14.4951 454.428L-14.4873 454.379L-14.4717 454.333C-8.37015 437.115 2.10286 410.769 11.0898 384.701C15.5774 371.685 19.6818 358.771 22.6641 347.16C25.6483 335.542 27.5 325.262 27.5 317.5C27.5 294.061 20.0118 249.109 11.5166 216.627C-0.64434 170.129 -29.79 152.241 -45.7715 141.92L-45.3633 141.019C-34.1785 144.19 -4.29492 154.442 12.417 179.725C17.3501 187.188 21.1702 199.998 24.2783 214.823C27.391 229.67 29.8048 246.617 31.8916 262.404C33.9799 278.203 35.7394 292.828 37.5469 303.067C38.4517 308.193 39.3622 312.18 40.3184 314.656C40.802 315.909 41.2692 316.697 41.6953 317.072C41.898 317.251 42.059 317.308 42.1846 317.313C42.3084 317.318 42.4743 317.276 42.6934 317.105C44.876 315.408 46.8577 312.88 49.0146 309.611C51.1754 306.337 53.4659 302.394 56.3105 297.849C61.9847 288.783 69.7598 277.496 82.6543 265.139C94.6548 253.638 103.762 244.53 109.868 237.303C112.921 233.689 115.211 230.56 116.736 227.849C118.265 225.132 119 222.876 119 221C119 220.058 118.753 218.449 118.302 216.29C117.853 214.145 117.21 211.497 116.438 208.5C114.892 202.505 112.831 195.137 110.768 187.633C108.705 180.133 106.641 172.501 105.092 165.991C103.547 159.502 102.5 154.069 102.5 151V54L103.485 53.8789Z" fill="#4B2C36"/>
<path d="M101.512 680C69 701 39.3039 661.299 40.5039 644.499C42.0039 623.499 66.003 610.499 65.003 593.999C64.003 577.499 45.503 560.999 45.503 548.499C45.503 535.999 62.503 450.499 72.003 443.499C81.503 436.499 138.003 401.499 150.503 410.999C159.292 417.679 161.773 424.077 162.018 427.339C162.329 415.195 167.526 393.114 186.503 393.501C211.003 394.001 218.003 395.999 229.503 410.999C241.003 426 250.503 457 247.503 470.5C244.503 484 229.503 497.5 229.503 506C229.503 514.5 247.503 534 252.503 544.5C257.503 555 291.503 593 265.003 621.5C238.503 650 197.003 665.5 185.003 664.5C173.003 663.5 158.003 653 152.503 655.5C147.003 658 145.5 667.5 133.5 672C130.5 673.125 109.003 679.5 108.003 672L101.512 680Z" fill="#52AA5E"/>
<path d="M75 748C91.1667 702.833 123.5 603.9 123.5 569.5C123.5 535.1 115.167 481.833 111 459.5C119.333 486 135 544.3 131 565.5C147.333 545.5 181.2 500.2 186 479C190.8 457.8 194 433.5 195 424C194.667 445.667 191.4 493 181 509C170.6 525 159 540.667 154.5 546.5C166.333 541 191.9 529.7 199.5 528.5C186.5 535 159.3 549.1 154.5 553.5C148.5 559 135.5 587 135.5 592C135.5 597 172 594.5 176.5 592C181 589.5 213.6 553.5 214 553.5C218.123 553.5 199.5 574.5 190 588.5C187.016 592.898 238.5 590 239.5 592C233.667 593.333 221.3 594.2 208.5 595C196.919 595.724 185.692 598.276 184.894 598.508L185 598.5C184.841 598.532 184.81 598.533 184.894 598.508L160 600.5C167.5 606 190 616 190 616.5C188 617 183 616 178.5 614C177.038 613.35 162.5 606.5 154.5 601.5C147.333 601.833 132.6 602.6 131 603C129 603.5 111 678 111 691C111 701.4 114.333 731.667 116 745.5L75 748Z" fill="#4B2C36"/>
<path d="M278.5 390.002C268.9 388.002 247.833 380.169 238.5 376.502C244.5 372.335 258.8 362.4 268 356C279.5 348 281 333 283.5 320.5C286 308 268.5 288.5 268 284.5C267.5 280.5 271 271.001 274 265.501C277 260.001 286 259.501 295 260.001C304 260.501 318 282.001 319.5 282.001C321 282.001 329.5 272.001 340.5 273.501C349.3 274.701 350.167 296.334 349.5 307.001C350.333 302.001 353.6 289.002 360 277.002C368 262.002 382 259.002 404 262.502C421.6 265.302 429.667 290.335 431.5 302.502C435.333 303.669 444.6 307.302 451 312.502C459 319.002 464.5 324.002 465.5 340.002C466.3 352.802 436.167 366.335 421 371.502C420 377.669 416.2 392.802 409 404.002C401.8 415.202 381.667 412.335 372.5 409.502C371.167 411.002 367.2 414.302 362 415.502C356.8 416.702 348.5 405.002 345 399.002C341 402.502 331.7 409.502 326.5 409.502H298C295.5 403.835 288.1 392.002 278.5 390.002Z" fill="#52AA5E"/>
<path d="M304.5 500.5C299.3 500.5 295.667 492.833 294.5 489C294 486.666 293.3 479.3 294.5 468.5C296 455 294.5 388 294.5 384.5C294.5 381.699 272 374 265.5 370C270.7 370.8 290.167 377 294.5 380.5C294 379.667 294.2 378.8 293 374C291.8 369.2 283.667 359 280.5 355.5C282.9 355.5 289.833 363.833 293 368C292.5 361.667 291.5 347.4 291.5 341C291.5 334.6 298.833 313.667 302.5 304C302.5 307.5 294.5 333.5 294.5 345C294.5 354.2 299.833 378.167 302.5 389L307 384.5C309 382.498 312.5 383.666 314 384.5C311.833 383.833 306.9 385.1 304.5 395.5C302.1 405.9 303.5 469.833 304.5 500.5Z" fill="#4B2C36"/>
<path d="M352.5 458C355.7 458 361.833 456.333 364.5 455.5C363.333 445.167 361 422 361 412C361 402 363.333 391.5 364.5 387.5C364.5 383.1 373.833 375.667 378.5 372.5C382 373.167 390 373.5 394 369.5C398 365.5 410 361.833 415.5 360.5C414.667 360.333 412.1 360.1 408.5 360.5C404 361 390 368.5 386.5 368.5C383.7 368.5 381.667 367.167 381 366.5C384.5 360.667 391.7 348.4 392.5 346C393.5 343 401 316 402 293.5C402.089 291.502 400.5 283.5 399 283C400 283.5 401.4 288.7 399 305.5C396.6 322.3 386 345.5 381 355C379.5 356.667 376.3 359.3 375.5 356.5C374.5 353 366 334 364.5 332.5C363.3 331.3 356 327.333 352.5 325.5C355.333 327.5 361.7 332.2 364.5 335C368 338.5 373 361.5 372 365.5C371 369.5 352.5 386 352.5 395.5C352.5 403.1 345.167 436 341.5 451.5C343.833 453.667 349.3 458 352.5 458Z" fill="#4B2C36"/>
<path d="M630.444 330.775C617.551 324.232 623.764 307.158 629.137 304.38C635.852 300.906 644.605 306.207 649.447 302.775C654.289 299.342 655.645 290.257 659.464 287.901C663.283 285.546 692.793 274.922 696.825 276.671C700.856 278.42 722.806 290.072 722.394 295.9C722.104 299.997 720.643 302.004 719.696 302.698C723.468 300.51 731.25 298.027 734.912 304.229C739.641 312.236 740.425 314.874 738.133 321.415C735.84 327.956 728.261 336.867 723.539 338.442C718.817 340.018 711.703 337.717 709.106 339.319C706.509 340.921 704.137 350.41 701.925 354.004C699.713 357.598 694.877 375.741 680.889 372.553C666.902 369.365 653.898 358.883 651.813 354.819C649.728 350.755 649.948 343.931 648.088 342.626C646.229 341.321 643.027 342.626 639.261 339.598C638.32 338.841 632.089 333.1 634.182 331.363L630.444 330.775Z" fill="#52AA5E"/>
<path d="M607.177 310.255C606.191 299.487 619.476 296.631 623.373 298.927C628.244 301.798 628.368 309.451 632.469 311.151C636.569 312.852 642.861 310.097 645.873 311.579C648.884 313.06 667.351 327.523 667.847 330.772C668.343 334.021 669.696 352.557 665.841 354.614C663.131 356.06 661.279 355.934 660.462 355.609C663.349 357.128 668.017 361.068 665.546 365.855C662.356 372.035 660.998 373.581 655.944 374.731C650.889 375.882 642.231 374.627 639.355 372.263C636.478 369.899 635.106 364.479 633.058 363.471C631.01 362.464 624.058 364.736 620.902 364.765C617.746 364.794 604.332 368.948 600.786 358.822C597.241 348.696 598.706 336.291 600.451 333.354C602.195 330.416 606.604 327.841 606.69 326.144C606.777 324.447 604.677 322.939 605.096 319.349C605.201 318.452 606.359 312.222 608.291 312.857L607.177 310.255Z" fill="#52AA5E"/>
<path d="M1215 -8V126L1267.5 115.5V478.5C1242.5 488.167 1186.1 507.5 1160.5 507.5C1134.9 507.5 1096.83 464.833 1081 443.5V389.5C1065.5 356 1031.7 287.1 1020.5 279.5C1006.5 270 1012 238.5 1012 227.5C1012 216.5 1025.5 209.5 1034.5 201C1041.7 194.2 1061.83 194.833 1071 196C1059 194 1060 180 1060 172.5C1060 165 1070 151 1071 145C1072 139 1062 126 1042.5 126C1023 126 963.5 115.5 946 115.5C928.5 115.5 898 72.5 898 48C898 28.4 930 2.5 946 -8H1215Z" fill="#52AA5E"/>
<path d="M805.643 634.777C801.241 621.482 786.904 627.704 780.286 632.477L681.428 793.727C682.997 798.947 687.357 811.458 692.241 819.751C698.347 830.117 716.995 828.304 727.382 821.9C737.769 815.496 731.405 807.81 732.382 803.205C733.164 799.522 742.399 799.413 746.919 799.818L804.877 882.182L879.205 827.938C883.606 819.756 892.588 801.894 893.308 795.902C894.207 788.412 889.759 770.074 881.813 756.688C873.867 743.302 871.453 751.756 868.06 748.257C864.668 744.758 873.366 724.546 870.74 716.786C868.639 710.578 856.626 701.668 850.882 697.989C851.936 696.27 854.434 690.99 855.997 683.623C857.951 674.414 856.435 658.82 837.978 651.288C823.212 645.263 808.049 664.476 802.313 674.836C793.927 669.695 811.145 651.395 805.643 634.777Z" fill="#52AA5E"/>
<path d="M1141 31C1145.5 38.6667 1154.8 56.6 1156 67C1157.5 80 1158 107 1161 112C1164 117 1173.5 125.5 1176.5 131.5C1178.9 136.3 1195.83 163.833 1204 177L1250 135.5V768H1058.5C1071.17 755 1102.4 721.6 1126 692C1155.5 655 1170 542.5 1189 488C1194.1 473.385 1197.04 448.099 1198.48 417.8C1190.14 397.208 1180.06 375.076 1172.5 366C1160.5 351.6 1128.5 330.667 1114 322C1134.5 330 1176.8 348 1182 356C1186.15 362.382 1193.96 377.04 1199.41 387.53C1200.3 332.723 1197.53 269.009 1194 222.5C1192.48 202.5 1189.5 186.5 1182 177C1178.62 172.721 1172.05 170.774 1161.29 167.585L1161 167.5C1147.5 163.5 1104 146.5 1096.5 148C1106.83 139 1172.1 164.8 1176.5 160C1182 154 1144.5 118.5 1128.5 107C1115.7 97.8 1022.83 60.1667 978 42.5C990.5 44.8333 1016.85 52.611 1027 55C1052.5 61 1148 107 1149.5 105C1151 103 1151.5 95 1149.5 89.5C1147.68 84.4846 1135.67 68.8333 1132 63.5C1137.2 63.9 1148.83 80.3333 1152.5 86C1152.33 81.3333 1152.47 62.4371 1149.5 55C1144.5 42.5 1144 36.3333 1141 31Z" fill="#4B2C36"/>
</g>
<defs>
<clipPath id="clip0_603_828">
<rect width="1200" height="750" fill="white"/>
</clipPath>
</defs>
</svg>
