<svg width="1200" height="750" viewBox="0 0 1200 750" fill="none" xmlns="http://www.w3.org/2000/svg">
<g clip-path="url(#clip0_568_836)">
<path d="M142.5 728.002C153.3 729.602 163.283 750.167 165.117 753.5L78.75 759.5L-4 747L-12 430L92.5 422.5C65.5 429 34.5 467.5 34.5 490V647C39.3333 651 49 660.1 49 664.5C49 668.9 61.6667 688.334 68 697.501C72.8 695.501 85.3333 703.002 91 707.002C99.5 704.502 101.5 709.002 108.5 709.502C115.5 710.002 129 726.002 142.5 728.002Z" fill="#436C5E"/>
<path d="M251 750.786V455.286L266 419.284L359 408.008C345 409.707 283.5 436.998 271.5 470.518C270.152 474.284 271 668.453 271 750.786H251Z" fill="#436C5E"/>
<path d="M489.883 761.5L487 455.241L502 419.239L579.326 415.985C582.92 415.241 586.342 415.059 589.5 415.557L579.326 415.985C550.484 421.961 510.557 464.165 507 481.543C506.198 485.462 507 679.167 507 761.5H489.883Z" fill="#436C5E"/>
<path d="M718 750.501V455.001L733 419L813.5 423.297C761.5 436.297 743.601 473.297 739 484.812C737.516 488.527 738 668.168 738 750.501H718Z" fill="#436C5E"/>
<path d="M933 740.807V445.307L948 409.306L1019.3 409.304C1022.14 408.906 1024.88 408.891 1027.5 409.304L1019.3 409.304C991.275 413.24 954.816 454.605 953 488.807C952.788 492.802 953 658.474 953 740.807H933Z" fill="#436C5E"/>
<path d="M1219.5 352.5H-21V757.5L20.5 761.5V479C23 466.5 76 422 115.5 422C137.5 422 192 444 204 479V750.786H255V468C262.5 447 316 409.5 354.5 409.5C380 409.5 440.5 438.5 450 479V762H491.5C490.333 673.5 488.7 487.9 491.5 471.5C495.256 449.5 559 409.977 586 415.5C665.671 431.796 672.5 471.5 676 487V762H720.5V483.5C750.5 433 791.2 427.2 814 424C836.8 420.8 887 450 902.5 487V622L937 605.5C936.167 565.833 935 483.4 937 471C939.5 455.5 985 419.5 1018 412C1044.4 406 1079.67 440.167 1094 458V475L1219.5 449.5V352.5Z" fill="#FF9F1C"/>
<path d="M744 715.999C732.5 717.999 712 735.999 707.5 749.499L1221.5 783V336C1217.5 329 1209.5 314.7 1209.5 313.5C1209.5 312.3 1207.5 310.333 1206.5 309.5C1207.83 311.667 1209.3 315.4 1204.5 313C1199.7 310.6 1198.5 301.667 1198.5 297.5C1201.7 297.5 1203.17 294.833 1203.5 293.5C1201.1 294.7 1195.83 293.333 1193.5 292.5C1198.7 292.9 1204.33 286 1206.5 282.5C1199.3 282.5 1194.83 275.833 1193.5 272.5C1195.9 273.3 1198.17 272.833 1199 272.5C1193.8 269.7 1191.17 263 1190.5 260C1191.7 261.2 1194.67 261.167 1196 261C1193.6 259.4 1190.33 249 1189 244C1188.6 245.2 1182.83 251.833 1180 255C1181.6 255 1184.33 252.333 1185.5 251C1183.1 256.6 1173.17 270 1168.5 276C1171.3 276 1176.33 272 1178.5 270C1177.7 274.4 1172.83 283.167 1170.5 287C1173.3 285.8 1175 283.5 1175.5 282.5C1173.5 287.7 1167.67 294.333 1165 297C1166.6 297.4 1171.33 295.833 1173.5 295C1171.9 297.8 1159.83 304.167 1154 307C1156 307.4 1158.83 306.5 1160 306C1157.6 310 1152.33 313.333 1150 314.5C1148 313.3 1144.83 308.333 1143.5 306C1149.1 308.8 1157.17 302.167 1160.5 298.5C1156 299.5 1144 292.5 1146.5 293C1148.5 293.4 1150.67 292.167 1151.5 291.5C1149.5 291.5 1144.33 286.5 1142 284C1143.5 285 1147.2 287.1 1150 287.5C1152.8 287.9 1155.83 286.333 1157 285.5C1148.2 285.9 1140 271.667 1137 264.5C1139.4 266.1 1142.67 266.167 1144 266C1140 264.8 1134.33 248.167 1132 240C1131.2 248.4 1110.67 279.167 1100.5 293.5C1101.7 293.5 1105.33 290.833 1107 289.5C1106.6 292.3 1098.5 300 1094.5 303.5C1099.3 304.3 1105.17 300.5 1107.5 298.5C1106.67 299.833 1103.8 303.4 1099 307C1094.2 310.6 1085.33 311.167 1081.5 311C1081.17 311.667 1082.1 313.6 1088.5 316C1094.9 318.4 1102.17 316 1105 314.5C1105 318.1 1096 332.667 1091.5 339.5C1093.9 339.1 1096.83 337 1098 336C1092 351.2 1079.17 361.667 1073.5 365C1075.5 366.2 1079 364.5 1080.5 363.5C1080.17 364.167 1078.8 366.1 1076 368.5C1073.2 370.9 1069.5 371.167 1068 371C1071.6 374.6 1080.83 372.5 1085 371C1082.6 376.2 1067.67 381.833 1060.5 384C1060.67 384.333 1062.4 385.1 1068 385.5C1073.6 385.9 1078 384.667 1079.5 384C1077.83 386.667 1073.6 393 1070 397C1066.4 401 1058.83 403 1055.5 403.5C1057 406 1062.5 405 1058 405.5C1054.4 405.9 1050.17 404.333 1048.5 403.5C1047.67 403.5 1047.3 404.6 1052.5 409C1057.7 413.4 1070.33 414.833 1076 415C1075.6 416.6 1070.5 418 1068 418.5C1071.6 420.1 1073.83 419.167 1074.5 418.5C1073.5 423.5 1058.5 423.5 1062 424.5C1064.8 425.3 1071.5 423.5 1074.5 422.5C1075.33 423.5 1076 426.5 1072 430.5C1067 435.5 1041.5 438.5 1046 439.5C1049.6 440.3 1062.5 441.5 1068.5 442C1069.67 442.333 1072 443.4 1072 445C1072 446.6 1063.67 447.667 1059.5 448H1072L1063.5 450.5C1060.67 453.5 1054.5 459.9 1052.5 461.5C1050 463.5 1040.5 464.999 1035.5 463.999C1031.5 463.199 1035.17 465.333 1037.5 466.499C1039.9 467.699 1058.17 465.999 1067 464.999C1068.17 465.999 1070.8 467.999 1072 467.999H1085L1073.5 474.499C1048.7 475.699 975.167 534.666 941.5 563.999L936.5 561.499L941.5 559.499L929.5 556.999L938.5 554.999L927 547.499L936.5 549.499L929.5 542.499H936.5L927 537.499V526.999L923 542.499L910.5 551.999L920 554.999L916 561.499L909 565.499L914.5 566.999L910.5 572.499L903.5 575.499L913 577.499L906.5 579.999L900 581.499L914.5 585.999L916 590.499C914.833 590.666 911 591.499 905 593.499C899 595.499 877.833 614.999 868 624.499C829 634.499 795.5 686.499 791.5 691.999C787.5 697.499 755.5 713.999 744 715.999Z" fill="#436C5E"/>
</g>
<defs>
<clipPath id="clip0_568_836">
<rect width="1200" height="750" fill="white"/>
</clipPath>
</defs>
</svg>
