<svg width="1200" height="750" viewBox="0 0 1200 750" fill="none" xmlns="http://www.w3.org/2000/svg">
<g clip-path="url(#clip0_568_836)">
<path d="M142.5 728.002C153.3 729.602 163.283 750.167 165.117 753.5L78.75 759.5L-4 747L-12 430L92.5 422.5C65.5 429 34.5 467.5 34.5 490V647C39.3333 651 49 660.1 49 664.5C49 668.9 61.6667 688.334 68 697.501C72.8 695.501 85.3333 703.002 91 707.002C99.5 704.502 101.5 709.002 108.5 709.502C115.5 710.002 129 726.002 142.5 728.002Z" fill="#436C5E"/>
<path d="M251 750.786V455.286L266 419.284L359 408.008C345 409.707 283.5 436.998 271.5 470.518C270.152 474.284 271 668.453 271 750.786H251Z" fill="#436C5E"/>
<path d="M489.883 761.5L487 455.241L502 419.239L579.326 415.985C582.92 415.241 586.342 415.059 589.5 415.557L579.326 415.985C550.484 421.961 510.557 464.165 507 481.543C506.198 485.462 507 679.167 507 761.5H489.883Z" fill="#436C5E"/>
<path d="M718 750.501V455.001L733 419L813.5 423.297C761.5 436.297 743.601 473.297 739 484.812C737.516 488.527 738 668.168 738 750.501H718Z" fill="#436C5E"/>
<path d="M933 740.807V445.307L948 409.306L1019.3 409.304C1022.14 408.906 1024.88 408.891 1027.5 409.304L1019.3 409.304C991.275 413.24 954.816 454.605 953 488.807C952.788 492.802 953 658.474 953 740.807H933Z" fill="#436C5E"/>
<path d="M1219.5 352.5H-21V757.5L20.5 761.5V479C23 466.5 76 422 115.5 422C137.5 422 192 444 204 479V750.786H255V468C262.5 447 316 409.5 354.5 409.5C380 409.5 440.5 438.5 450 479V762H491.5C490.333 673.5 488.7 487.9 491.5 471.5C495.256 449.5 559 409.977 586 415.5C665.671 431.796 672.5 471.5 676 487V762H720.5V483.5C750.5 433 791.2 427.2 814 424C836.8 420.8 887 450 902.5 487V635.5L937 605.5C936.167 565.833 935 483.4 937 471C939.5 455.5 985 419.5 1018 412C1044.4 406 1079.67 440.167 1094 458V475L1219.5 449.5V352.5Z" fill="#FF9F1C"/>
<path d="M783.5 715.999C772 717.999 751.5 735.999 747 749.499L1261 783V336C1257 329 1249 314.7 1249 313.5C1249 312.3 1247 310.333 1246 309.5C1247.33 311.667 1248.8 315.4 1244 313C1239.2 310.6 1238 301.667 1238 297.5C1241.2 297.5 1242.67 294.833 1243 293.5C1240.6 294.7 1235.33 293.333 1233 292.5C1238.2 292.9 1243.83 286 1246 282.5C1238.8 282.5 1234.33 275.833 1233 272.5C1235.4 273.3 1237.67 272.833 1238.5 272.5C1233.3 269.7 1230.67 263 1230 260C1231.2 261.2 1234.17 261.167 1235.5 261C1233.1 259.4 1229.83 249 1228.5 244C1228.1 245.2 1222.33 251.833 1219.5 255C1221.1 255 1223.83 252.333 1225 251C1222.6 256.6 1212.67 270 1208 276C1210.8 276 1215.83 272 1218 270C1217.2 274.4 1212.33 283.167 1210 287C1212.8 285.8 1214.5 283.5 1215 282.5C1213 287.7 1207.17 294.333 1204.5 297C1206.1 297.4 1210.83 295.833 1213 295C1211.4 297.8 1199.33 304.167 1193.5 307C1195.5 307.4 1198.33 306.5 1199.5 306C1197.1 310 1191.83 313.333 1189.5 314.5C1187.5 313.3 1184.33 308.333 1183 306C1188.6 308.8 1196.67 302.167 1200 298.5C1195.5 299.5 1183.5 292.5 1186 293C1188 293.4 1190.17 292.167 1191 291.5C1189 291.5 1183.83 286.5 1181.5 284C1183 285 1186.7 287.1 1189.5 287.5C1192.3 287.9 1195.33 286.333 1196.5 285.5C1187.7 285.9 1179.5 271.667 1176.5 264.5C1178.9 266.1 1182.17 266.167 1183.5 266C1179.5 264.8 1173.83 248.167 1171.5 240C1170.7 248.4 1150.17 279.167 1140 293.5C1141.2 293.5 1144.83 290.833 1146.5 289.5C1146.1 292.3 1138 300 1134 303.5C1138.8 304.3 1144.67 300.5 1147 298.5C1146.17 299.833 1143.3 303.4 1138.5 307C1133.7 310.6 1124.83 311.167 1121 311C1120.67 311.667 1121.6 313.6 1128 316C1134.4 318.4 1141.67 316 1144.5 314.5C1144.5 318.1 1135.5 332.667 1131 339.5C1133.4 339.1 1136.33 337 1137.5 336C1131.5 351.2 1118.67 361.667 1113 365C1115 366.2 1118.5 364.5 1120 363.5C1119.67 364.167 1118.3 366.1 1115.5 368.5C1112.7 370.9 1109 371.167 1107.5 371C1111.1 374.6 1120.33 372.5 1124.5 371C1122.1 376.2 1107.17 381.833 1100 384C1100.17 384.333 1101.9 385.1 1107.5 385.5C1113.1 385.9 1117.5 384.667 1119 384C1117.33 386.667 1113.1 393 1109.5 397C1105.9 401 1098.33 403 1095 403.5C1096.5 406 1102 405 1097.5 405.5C1093.9 405.9 1089.67 404.333 1088 403.5C1087.17 403.5 1086.8 404.6 1092 409C1097.2 413.4 1109.83 414.833 1115.5 415C1115.1 416.6 1110 418 1107.5 418.5C1111.1 420.1 1113.33 419.167 1114 418.5C1113 423.5 1098 423.5 1101.5 424.5C1104.3 425.3 1111 423.5 1114 422.5C1114.83 423.5 1115.5 426.5 1111.5 430.5C1106.5 435.5 1081 438.5 1085.5 439.5C1089.1 440.3 1102 441.5 1108 442C1109.17 442.333 1111.5 443.4 1111.5 445C1111.5 446.6 1103.17 447.667 1099 448H1111.5L1103 450.5C1100.17 453.5 1094 459.9 1092 461.5C1089.5 463.5 1080 464.999 1075 463.999C1071 463.199 1074.67 465.333 1077 466.499C1079.4 467.699 1097.67 465.999 1106.5 464.999C1107.67 465.999 1110.3 467.999 1111.5 467.999H1124.5L1113 474.499C1088.2 475.699 1014.67 534.666 981 563.999L976 561.499L981 559.499L969 556.999L978 554.999L966.5 547.499L976 549.499L969 542.499H976L966.5 537.499V526.999L962.5 542.499L950 551.999L959.5 554.999L955.5 561.499L948.5 565.499L954 566.999L950 572.499L943 575.499L952.5 577.499L946 579.999L939.5 581.499L954 585.999L955.5 590.499C954.333 590.666 950.5 591.499 944.5 593.499C938.5 595.499 917.333 614.999 907.5 624.499C868.5 634.499 835 686.499 831 691.999C827 697.499 795 713.999 783.5 715.999Z" fill="#436C5E"/>
</g>
<defs>
<clipPath id="clip0_568_836">
<rect width="1200" height="750" fill="white"/>
</clipPath>
</defs>
</svg>
