<svg width="1200" height="750" viewBox="0 0 1200 750" fill="none" xmlns="http://www.w3.org/2000/svg">
<g clip-path="url(#clip0_593_840)">
<path d="M142.499 728.002C153.299 729.602 163.283 750.167 165.116 753.5L78.7493 759.5L-4.00067 747L-6.94173 630.461C-15.2582 634.69 -21.5007 638.835 -21.5007 637.5C-21.5007 615 -177.001 538.5 -150.001 532L-12.0007 430L-6.94173 630.461C9.65083 622.023 34.4993 613.25 34.4993 647C39.3327 651 48.9993 660.1 48.9993 664.5C48.9993 668.9 61.666 688.334 67.9993 697.501C72.7993 695.501 85.3327 703.002 90.9993 707.002C99.4993 704.502 101.499 709.002 108.499 709.502C115.499 710.002 128.999 726.002 142.499 728.002Z" fill="#436C5E"/>
<path d="M744 715.999C732.5 717.999 712 735.999 707.5 749.499L1221.5 783V336C1217.5 329 1209.5 314.7 1209.5 313.5C1209.5 312.3 1207.5 310.333 1206.5 309.5C1207.83 311.667 1209.3 315.4 1204.5 313C1199.7 310.6 1198.5 301.667 1198.5 297.5C1201.7 297.5 1203.17 294.833 1203.5 293.5C1201.1 294.7 1195.83 293.333 1193.5 292.5C1198.7 292.9 1204.33 286 1206.5 282.5C1199.3 282.5 1194.83 275.833 1193.5 272.5C1195.9 273.3 1198.17 272.833 1199 272.5C1193.8 269.7 1191.17 263 1190.5 260C1191.7 261.2 1194.67 261.167 1196 261C1193.6 259.4 1190.33 249 1189 244C1188.6 245.2 1182.83 251.833 1180 255C1181.6 255 1184.33 252.333 1185.5 251C1183.1 256.6 1173.17 270 1168.5 276C1171.3 276 1176.33 272 1178.5 270C1177.7 274.4 1172.83 283.167 1170.5 287C1173.3 285.8 1175 283.5 1175.5 282.5C1173.5 287.7 1167.67 294.333 1165 297C1166.6 297.4 1171.33 295.833 1173.5 295C1171.9 297.8 1159.83 304.167 1154 307C1156 307.4 1158.83 306.5 1160 306C1157.6 310 1152.33 313.333 1150 314.5C1148 313.3 1144.83 308.333 1143.5 306C1149.1 308.8 1157.17 302.167 1160.5 298.5C1156 299.5 1144 292.5 1146.5 293C1148.5 293.4 1150.67 292.167 1151.5 291.5C1149.5 291.5 1144.33 286.5 1142 284C1143.5 285 1147.2 287.1 1150 287.5C1152.8 287.9 1155.83 286.333 1157 285.5C1148.2 285.9 1140 271.667 1137 264.5C1139.4 266.1 1142.67 266.167 1144 266C1140 264.8 1134.33 248.167 1132 240C1131.2 248.4 1110.67 279.167 1100.5 293.5C1101.7 293.5 1105.33 290.833 1107 289.5C1106.6 292.3 1098.5 300 1094.5 303.5C1099.3 304.3 1105.17 300.5 1107.5 298.5C1106.67 299.833 1103.8 303.4 1099 307C1094.2 310.6 1085.33 311.167 1081.5 311C1081.17 311.667 1082.1 313.6 1088.5 316C1094.9 318.4 1102.17 316 1105 314.5C1105 318.1 1096 332.667 1091.5 339.5C1093.9 339.1 1096.83 337 1098 336C1092 351.2 1079.17 361.667 1073.5 365C1075.5 366.2 1079 364.5 1080.5 363.5C1080.17 364.167 1078.8 366.1 1076 368.5C1073.2 370.9 1069.5 371.167 1068 371C1071.6 374.6 1080.83 372.5 1085 371C1082.6 376.2 1067.67 381.833 1060.5 384C1060.67 384.333 1062.4 385.1 1068 385.5C1073.6 385.9 1078 384.667 1079.5 384C1077.83 386.667 1073.6 393 1070 397C1066.4 401 1058.83 403 1055.5 403.5C1057 406 1062.5 405 1058 405.5C1054.4 405.9 1050.17 404.333 1048.5 403.5C1047.67 403.5 1047.3 404.6 1052.5 409C1057.7 413.4 1070.33 414.833 1076 415C1075.6 416.6 1070.5 418 1068 418.5C1071.6 420.1 1073.83 419.167 1074.5 418.5C1073.5 423.5 1058.5 423.5 1062 424.5C1064.8 425.3 1071.5 423.5 1074.5 422.5C1075.33 423.5 1076 426.5 1072 430.5C1067 435.5 1041.5 438.5 1046 439.5C1049.6 440.3 1062.5 441.5 1068.5 442C1069.67 442.333 1072 443.4 1072 445C1072 446.6 1063.67 447.667 1059.5 448H1072L1063.5 450.5C1060.67 453.5 1054.5 459.9 1052.5 461.5C1050 463.5 1040.5 464.999 1035.5 463.999C1031.5 463.199 1035.17 465.333 1037.5 466.499C1039.9 467.699 1058.17 465.999 1067 464.999C1068.17 465.999 1070.8 467.999 1072 467.999H1085L1073.5 474.499C1048.7 475.699 975.167 534.666 941.5 563.999L936.5 561.499L941.5 559.499L929.5 556.999L938.5 554.999L927 547.499L936.5 549.499L929.5 542.499H936.5L927 537.499V526.999L923 542.499L910.5 551.999L920 554.999L916 561.499L909 565.499L914.5 566.999L910.5 572.499L903.5 575.499L913 577.499L906.5 579.999L900 581.499L914.5 585.999L916 590.499C914.833 590.666 911 591.499 905 593.499C899 595.499 877.833 614.999 868 624.499C829 634.499 795.5 686.499 791.5 691.999C787.5 697.499 755.5 713.999 744 715.999Z" fill="#436C5E"/>
<path d="M94 110.001C88 119 18.3333 136.668 -19 143.501L-10 -11H252.5C253.167 -6.5 253 4.5 247 12.5C241 20.5 222.167 15.8333 213.5 12.5C216.5 14.8333 222.39 21.22 219.5 27C213.5 39 206 32.5 200 32.5C194 32.5 188.5 18.0017 183 16.0017C177.5 14.0017 171 25.0016 173.5 23.5016C176 22.0016 191.5 32.0016 194 35.5016C196.5 39.0016 191 52.0016 185.5 62.5016C180 73.0016 124 88.0014 115 88.0014C106 88.0014 98.5 75.0014 98.5 75.0014C98.5 75.0014 91.5 73.9986 83.5 77.5C77.6349 80.067 73.5 88.0014 79.5 88.0014C85.5 88.0014 104.025 94.9664 94 110.001Z" fill="#FFE1B0"/>
<path d="M1241.5 227.5H1222C1215.5 227.667 1200.6 227.5 1193 225.5C1183.5 223 1186 215 1186 211C1186 207.8 1187.67 204.333 1188.5 203H1186C1179.5 205.333 1165.1 209.9 1159.5 209.5C1152.5 209 1146 196 1143.5 190.5C1141 185 1149.5 180.5 1151.5 175C1153.5 169.5 1146.5 168.5 1142 168.5C1137.5 168.5 1113.5 186.5 1105 186C1098.2 185.6 1090.17 181.5 1087 179.5C1076.67 186.5 1052.9 198.8 1040.5 192C1025 183.5 983.5 185.5 977.5 189.5C971.5 193.5 909 211.5 901 212.5C893 213.5 848.5 203 846 200.5C843.5 198 802.5 217.5 797 219C791.5 220.5 767.5 213 764.5 211.5C761.5 210 762 205 766.5 200.5C771 196 795 197.5 795 196C795 194.5 799 190 802 189.5C805 189 807 192 808 192.5C809 193 812.5 195 814.5 191C816.5 187 824.5 176 830 171.5C835.5 167 859.5 169.5 869.5 171.5C879.187 173.438 882.306 169.275 884.31 168.559L884.602 168.469C886.903 167.643 899.586 156.438 905 152.5C910.5 148.5 918.5 149 926.5 151C934.5 153 949.5 138 951 133C952.327 128.576 970.875 106.932 973.748 103.732C970.683 105.935 951.257 104.951 944 103.5C936.5 102 938 102.5 932.5 103.5C927 104.5 929.5 118.5 928 121C926.5 123.5 916 132.5 905 133C894 133.5 879 151 876 151C873 151 864.5 154.5 857.5 152.5C850.5 150.5 853.5 136.5 850.5 134.5C847.5 132.5 841.5 136.5 835 138C828.5 139.5 821 135 810 136.5C799 138 799 148.5 799 151C799 153.5 803 162 799 173.5C795.8 182.7 767.333 190.333 753.5 193C750.5 194.833 742.1 199.1 732.5 201.5C722.9 203.9 708.167 196.833 702 193C700.333 190 696.2 184 693 184C689 184 662 215.5 647.5 219C633 222.5 583 211 578 211C573 211 569.5 220.5 557.5 226.5C547.9 231.3 524.5 231.167 514 230.5C511.167 228.333 506.2 222.3 509 215.5C511.8 208.7 519.833 209.667 523.5 211C526.7 189.8 547.5 179.167 557.5 176.5C560.833 173.5 568.7 167.6 573.5 168C579.5 168.5 585.5 154 595.5 144C603.5 136 625.167 145.333 635 151C633.167 142 630.6 121.5 635 111.5C640.5 99 677.5 89 684.5 92.5C691.5 96 700 93.9999 704.5 89C709 84 695.5 74 700 45.5C703.6 22.7001 767.167 -8.99993 798.5 -22H1245.5L1241.5 227.5ZM1122 58C1118.5 58.8333 1110.5 60.6 1106.5 61C1084.5 63.2 1075.5 86.5 1071.5 90C1067.5 93.5 1053.5 95 1051 93.5C1048.5 92 1041 88 1035.5 89C1031.1 89.8 1025.33 92.3333 1023 93.5C1032.17 97.1667 1050.6 105.7 1051 110.5C1051.4 115.3 1058.5 114.833 1062 114C1066.67 110.5 1077.7 105.5 1084.5 105.5C1093 105.5 1096.5 107.5 1100.5 107C1104.5 106.5 1111 104.415 1111 101.5C1111 98.5 1113.5 84.5 1119 78C1123.4 72.8 1127.17 67.3334 1129.5 66C1123.5 64.5 1122 60.4 1122 58Z" fill="#FFE1B0"/>
</g>
<defs>
<clipPath id="clip0_593_840">
<rect width="1200" height="750" fill="white"/>
</clipPath>
</defs>
</svg>
