<svg width="1200" height="250" viewBox="0 0 1200 250" fill="none" xmlns="http://www.w3.org/2000/svg">
<g clip-path="url(#clip0_566_829)">
<path d="M94 110.001C88 119 18.3333 136.668 -19 143.501L-10 -11H252.5C253.167 -6.5 253 4.5 247 12.5C241 20.5 222.167 15.8333 213.5 12.5C216.5 14.8333 222.39 21.22 219.5 27C213.5 39 206 32.5 200 32.5C194 32.5 188.5 18.0017 183 16.0017C177.5 14.0017 171 25.0016 173.5 23.5016C176 22.0016 191.5 32.0016 194 35.5016C196.5 39.0016 191 52.0016 185.5 62.5016C180 73.0016 124 88.0014 115 88.0014C106 88.0014 98.5 75.0014 98.5 75.0014C98.5 75.0014 91.5 73.9986 83.5 77.5C77.6349 80.067 73.5 88.0014 79.5 88.0014C85.5 88.0014 104.025 94.9664 94 110.001Z" fill="#FFE1B0"/>
<path d="M700 45.5C703.6 22.7 767.167 -9 798.5 -22H1245.5L1241.5 227.5H1222C1215.5 227.667 1200.6 227.5 1193 225.5C1183.5 223 1186 215 1186 211C1186 207.8 1187.67 204.333 1188.5 203H1186C1179.5 205.333 1165.1 209.9 1159.5 209.5C1152.5 209 1146 196 1143.5 190.5C1141 185 1149.5 180.5 1151.5 175C1153.5 169.5 1146.5 168.5 1142 168.5C1137.5 168.5 1113.5 186.5 1105 186C1098.2 185.6 1090.17 181.5 1087 179.5C1076.67 186.5 1052.9 198.8 1040.5 192C1025 183.5 983.5 185.5 977.5 189.5C971.5 193.5 909 211.5 901 212.5C893 213.5 848.5 203 846 200.5C843.5 198 802.5 217.5 797 219C791.5 220.5 767.5 213 764.5 211.5C761.5 210 762 205 766.5 200.5C771 196 795 197.5 795 196C795 194.5 799 190 802 189.5C805 189 807 192 808 192.5C809 193 812.5 195 814.5 191C816.5 187 824.5 176 830 171.5C835.5 167 859.5 169.5 869.5 171.5C879.5 173.5 882.5 169 884.5 168.5C886.5 168 899.5 156.5 905 152.5C910.5 148.5 918.5 149 926.5 151C934.5 153 949.5 138 951 133C952.327 128.576 970.875 106.931 973.748 103.732C970.684 105.935 951.257 104.951 944 103.5C936.5 102 938 102.5 932.5 103.5C927 104.5 929.5 118.5 928 121C926.5 123.5 916 132.5 905 133C894 133.5 879 151 876 151C873 151 864.5 154.5 857.5 152.5C850.5 150.5 853.5 136.5 850.5 134.5C847.5 132.5 841.5 136.5 835 138C828.5 139.5 821 135 810 136.5C799 138 799 148.5 799 151C799 153.5 803 162 799 173.5C795.8 182.7 767.333 190.333 753.5 193C750.5 194.833 742.1 199.1 732.5 201.5C722.9 203.9 708.167 196.833 702 193C700.333 190 696.2 184 693 184C689 184 662 215.5 647.5 219C633 222.5 583 211 578 211C573 211 569.5 220.5 557.5 226.5C547.9 231.3 524.5 231.167 514 230.5C511.167 228.333 506.2 222.3 509 215.5C511.8 208.7 519.833 209.667 523.5 211C526.7 189.8 547.5 179.167 557.5 176.5C560.833 173.5 568.7 167.6 573.5 168C579.5 168.5 585.5 154 595.5 144C603.5 136 625.167 145.333 635 151C633.167 142 630.6 121.5 635 111.5C640.5 99 677.5 89 684.5 92.5C691.5 96 700 94 704.5 89C709 84 695.5 74 700 45.5Z" fill="#FFE1B0"/>
<path d="M1051 110.5C1050.6 105.7 1032.17 97.1667 1023 93.5C1025.33 92.3333 1031.1 89.8 1035.5 89C1041 88 1048.5 92 1051 93.5C1053.5 95 1067.5 93.5 1071.5 90C1075.5 86.5 1084.5 63.2 1106.5 61C1110.5 60.6 1118.5 58.8333 1122 58C1122 60.4 1123.5 64.5 1129.5 66C1127.17 67.3333 1123.4 72.8 1119 78C1113.5 84.5 1111 98.5 1111 101.5C1111 104.415 1104.5 106.5 1100.5 107C1096.5 107.5 1093 105.5 1084.5 105.5C1077.7 105.5 1066.67 110.5 1062 114C1058.5 114.833 1051.4 115.3 1051 110.5Z" fill="#FFC15E"/>
</g>
<defs>
<clipPath id="clip0_566_829">
<rect width="1200" height="250" fill="white"/>
</clipPath>
</defs>
</svg>
