<svg width="4057" height="143" viewBox="0 0 4057 143" fill="none" xmlns="http://www.w3.org/2000/svg">
<rect width="4057" height="143" fill="#1B438B"/>
<circle cx="1179.8" cy="131.5" r="4" fill="#001A4A"/>
<circle cx="1204.8" cy="131.5" r="4" fill="#001A4A"/>
<circle cx="1350.8" cy="131.5" r="4" fill="#001A4A"/>
<circle cx="1372.8" cy="131.5" r="4" fill="#001A4A"/>
<path d="M1145.3 118.5C1143.7 122.5 1148.96 129.5 1151.8 132.5L1152.8 134H1173.8C1174.3 132 1175.4 130.5 1175.8 130.5H1209.3C1210.5 130.5 1210.8 132 1210.8 134H1342.8C1343.63 132.167 1345.5 131 1346.3 131H1374.8C1378.4 131 1380.63 132.167 1381.3 134H1392.8V89H1183.3C1178.3 89 1172.8 90.5 1169.3 92C1165.8 93.5 1147.3 113.5 1145.3 118.5Z" fill="#436C5E"/>
<path d="M1155.3 131.5H1171.3C1171.63 130.833 1172.5 129.5 1173.3 129.5H1211.8C1212.6 129.5 1213.13 131.167 1213.3 132H1341.3C1341.8 132 1343.8 129.5 1344.3 129.5H1379.8C1381.4 129.5 1382.8 131.167 1383.3 132H1389.3V125H1150.3C1150.3 127 1153.63 130.167 1155.3 131.5Z" fill="#FF9F1C"/>
<path d="M1164.3 98.5003C1163.1 99.3003 1157.13 105.834 1154.3 109H1173.8V98.5003C1171.13 98.167 1165.5 97.7003 1164.3 98.5003Z" fill="#FFE1B0"/>
<rect x="1211.8" y="98.5" width="14" height="11" rx="2" fill="#FFE1B0"/>
<rect x="1182.8" y="98.5" width="9" height="25" rx="1" fill="#FFE1B0"/>
<rect x="1302.8" y="98.5" width="9" height="25" rx="1" fill="#FFE1B0"/>
<rect x="1193.8" y="98.5" width="9" height="25" rx="1" fill="#FFE1B0"/>
<rect x="1313.8" y="98.5" width="9" height="25" rx="1" fill="#FFE1B0"/>
<path d="M1194.8 99.5C1194.8 98.9477 1195.24 98.5 1195.8 98.5H1197.58C1198.56 98.5 1198.86 99.8442 1197.96 100.255C1197.63 100.404 1197.42 100.731 1197.42 101.09V122.5C1197.42 123.052 1196.97 123.5 1196.42 123.5H1195.8C1195.24 123.5 1194.8 123.052 1194.8 122.5V99.5Z" fill="#FF9F1C"/>
<path d="M1314.8 99.5C1314.8 98.9477 1315.24 98.5 1315.8 98.5H1317.58C1318.56 98.5 1318.86 99.8442 1317.96 100.255C1317.63 100.404 1317.42 100.731 1317.42 101.09V122.5C1317.42 123.052 1316.97 123.5 1316.42 123.5H1315.8C1315.24 123.5 1314.8 123.052 1314.8 122.5V99.5Z" fill="#FF9F1C"/>
<path d="M1183.8 99.5C1183.8 98.9477 1184.24 98.5 1184.8 98.5H1185.06C1185.97 98.5 1186.37 99.644 1185.66 100.211C1185.43 100.394 1185.3 100.67 1185.3 100.962V122.75C1185.3 123.164 1184.96 123.5 1184.55 123.5C1184.13 123.5 1183.8 123.164 1183.8 122.75V99.5Z" fill="#FF9F1C"/>
<path d="M1303.8 99.5C1303.8 98.9477 1304.24 98.5 1304.8 98.5H1305.06C1305.97 98.5 1306.37 99.644 1305.66 100.211C1305.43 100.394 1305.3 100.67 1305.3 100.962V122.75C1305.3 123.164 1304.96 123.5 1304.55 123.5C1304.13 123.5 1303.8 123.164 1303.8 122.75V99.5Z" fill="#FF9F1C"/>
<path d="M1185.8 118.795C1185.8 118.632 1185.93 118.5 1186.09 118.5H1187.43C1187.66 118.5 1187.68 118.838 1187.46 118.875C1187.36 118.889 1187.3 118.968 1187.3 119.061V122.75C1187.3 123.164 1186.96 123.5 1186.55 123.5C1186.13 123.5 1185.8 123.164 1185.8 122.75V118.795Z" fill="#FF9F1C"/>
<path d="M1305.8 118.795C1305.8 118.632 1305.93 118.5 1306.09 118.5H1307.43C1307.66 118.5 1307.68 118.838 1307.46 118.875C1307.36 118.889 1307.3 118.968 1307.3 119.061V122.75C1307.3 123.164 1306.96 123.5 1306.55 123.5C1306.13 123.5 1305.8 123.164 1305.8 122.75V118.795Z" fill="#FF9F1C"/>
<rect x="1228.8" y="98.5" width="14" height="11" rx="2" fill="#FFE1B0"/>
<rect x="1245.8" y="98.5" width="14" height="11" rx="2" fill="#FFE1B0"/>
<rect x="1262.8" y="98.5" width="14" height="11" rx="2" fill="#FFE1B0"/>
<rect x="1279.8" y="98.5" width="14" height="11" rx="2" fill="#FFE1B0"/>
<rect x="1330.8" y="98.5" width="14" height="11" rx="2" fill="#FFE1B0"/>
<rect x="1347.8" y="98.5" width="14" height="11" rx="2" fill="#FFE1B0"/>
<rect x="1364.8" y="98.5" width="14" height="11" rx="2" fill="#FFE1B0"/>
<rect x="1380.8" y="100.5" width="9" height="2" fill="#FF9F1C"/>
<rect x="1294.8" y="100.5" width="7" height="2" fill="#FF9F1C"/>
<rect x="1323.8" y="100.5" width="6" height="2" fill="#FF9F1C"/>
<rect x="1203.8" y="100.5" width="7" height="2" fill="#FF9F1C"/>
<rect x="1174.8" y="100.5" width="7" height="2" fill="#FF9F1C"/>
<circle cx="1407" cy="132" r="4" fill="#001A4A"/>
<circle cx="1547" cy="132" r="4" fill="#001A4A"/>
<circle cx="1425" cy="132" r="4" fill="#001A4A"/>
<circle cx="1565" cy="132" r="4" fill="#001A4A"/>
<path d="M1397.02 103C1397.01 108.5 1397.02 119 1397.01 123L1397 134H1400.7C1401.12 132 1402.02 130.5 1402.35 130.5H1429.93C1430.92 130.5 1431.17 132 1431.17 134H1539.83C1540.52 132.167 1542.06 131 1542.72 131H1566.18C1569.14 131 1570.98 132.167 1571.53 134H1581V89H1408.53H1397.02C1397.02 89 1397.02 97.7359 1397.02 103Z" fill="#436C5E"/>
<path d="M1398.5 131.5H1399.82C1400.1 130.833 1400.83 129.5 1401.5 129.5H1431.24C1431.91 129.5 1432.36 131.167 1432.5 132H1537.63C1538.05 132 1539.73 129.5 1540.15 129.5H1570.01C1571.35 129.5 1572.53 131.167 1572.95 132H1578V125H1398.5C1398.5 127 1398.5 129 1398.5 131.5Z" fill="#FF9F1C"/>
<rect x="1448" y="98" width="14" height="11" rx="2" fill="#FFE1B0"/>
<rect x="1412" y="98" width="9" height="25" rx="1" fill="#FFE1B0"/>
<rect x="1532" y="98" width="9" height="25" rx="1" fill="#FFE1B0"/>
<rect x="1423" y="98" width="9" height="25" rx="1" fill="#FFE1B0"/>
<rect x="1543" y="98" width="9" height="25" rx="1" fill="#FFE1B0"/>
<path d="M1424 99C1424 98.4477 1424.45 98 1425 98H1426.78C1427.77 98 1428.06 99.3442 1427.16 99.7546C1426.83 99.9041 1426.62 100.231 1426.62 100.59V122C1426.62 122.552 1426.18 123 1425.62 123H1425C1424.45 123 1424 122.552 1424 122V99Z" fill="#FF9F1C"/>
<path d="M1544 99C1544 98.4477 1544.45 98 1545 98H1546.78C1547.77 98 1548.06 99.3442 1547.16 99.7546C1546.83 99.9041 1546.62 100.231 1546.62 100.59V122C1546.62 122.552 1546.18 123 1545.62 123H1545C1544.45 123 1544 122.552 1544 122V99Z" fill="#FF9F1C"/>
<path d="M1413 99C1413 98.4477 1413.45 98 1414 98H1414.26C1415.17 98 1415.57 99.144 1414.86 99.7115C1414.63 99.8938 1414.5 100.17 1414.5 100.462V122.25C1414.5 122.664 1414.16 123 1413.75 123C1413.34 123 1413 122.664 1413 122.25V99Z" fill="#FF9F1C"/>
<path d="M1533 99C1533 98.4477 1533.45 98 1534 98H1534.26C1535.17 98 1535.57 99.144 1534.86 99.7115C1534.63 99.8938 1534.5 100.17 1534.5 100.462V122.25C1534.5 122.664 1534.16 123 1533.75 123C1533.34 123 1533 122.664 1533 122.25V99Z" fill="#FF9F1C"/>
<path d="M1415 118.295C1415 118.132 1415.13 118 1415.29 118H1416.63C1416.86 118 1416.89 118.338 1416.66 118.375C1416.57 118.389 1416.5 118.468 1416.5 118.561V122.25C1416.5 122.664 1416.16 123 1415.75 123C1415.34 123 1415 122.664 1415 122.25V118.295Z" fill="#FF9F1C"/>
<path d="M1535 118.295C1535 118.132 1535.13 118 1535.29 118H1536.63C1536.86 118 1536.89 118.338 1536.66 118.375C1536.57 118.389 1536.5 118.468 1536.5 118.561V122.25C1536.5 122.664 1536.16 123 1535.75 123C1535.34 123 1535 122.664 1535 122.25V118.295Z" fill="#FF9F1C"/>
<rect x="1465" y="98" width="14" height="11" rx="2" fill="#FFE1B0"/>
<rect x="1482" y="98" width="14" height="11" rx="2" fill="#FFE1B0"/>
<rect x="1499" y="98" width="14" height="11" rx="2" fill="#FFE1B0"/>
<rect x="1560" y="98" width="14" height="11" rx="2" fill="#FFE1B0"/>
<rect x="1515.5" y="100" width="14" height="2" fill="#FF9F1C"/>
<rect x="1553" y="100" width="6" height="2" fill="#FF9F1C"/>
<rect x="1575" y="100" width="3" height="2" fill="#FF9F1C"/>
<rect x="1433" y="100" width="14" height="2" fill="#FF9F1C"/>
<rect x="1398" y="100" width="12" height="2" fill="#FF9F1C"/>
<circle cx="1595" cy="132" r="4" fill="#001A4A"/>
<circle cx="1735" cy="132" r="4" fill="#001A4A"/>
<circle cx="1613" cy="132" r="4" fill="#001A4A"/>
<circle cx="1753" cy="132" r="4" fill="#001A4A"/>
<path d="M1585.02 103C1585.01 108.5 1585.02 119 1585.01 123L1585 134H1588.7C1589.12 132 1590.02 130.5 1590.35 130.5H1617.93C1618.92 130.5 1619.17 132 1619.17 134H1727.83C1728.52 132.167 1730.06 131 1730.72 131H1754.18C1757.14 131 1758.98 132.167 1759.53 134H1769V89H1596.53H1585.02C1585.02 89 1585.02 97.7359 1585.02 103Z" fill="#436C5E"/>
<path d="M1586.5 131.5H1587.82C1588.1 130.833 1588.83 129.5 1589.5 129.5H1619.24C1619.91 129.5 1620.36 131.167 1620.5 132H1725.63C1726.05 132 1727.73 129.5 1728.15 129.5H1758.01C1759.35 129.5 1760.53 131.167 1760.95 132H1766V125H1586.5C1586.5 127 1586.5 129 1586.5 131.5Z" fill="#FF9F1C"/>
<rect x="1636" y="98" width="14" height="11" rx="2" fill="#FFE1B0"/>
<rect x="1600" y="98" width="9" height="25" rx="1" fill="#FFE1B0"/>
<rect x="1720" y="98" width="9" height="25" rx="1" fill="#FFE1B0"/>
<rect x="1611" y="98" width="9" height="25" rx="1" fill="#FFE1B0"/>
<rect x="1731" y="98" width="9" height="25" rx="1" fill="#FFE1B0"/>
<path d="M1612 99C1612 98.4477 1612.45 98 1613 98H1614.78C1615.77 98 1616.06 99.3442 1615.16 99.7546C1614.83 99.9041 1614.62 100.231 1614.62 100.59V122C1614.62 122.552 1614.18 123 1613.62 123H1613C1612.45 123 1612 122.552 1612 122V99Z" fill="#FF9F1C"/>
<path d="M1732 99C1732 98.4477 1732.45 98 1733 98H1734.78C1735.77 98 1736.06 99.3442 1735.16 99.7546C1734.83 99.9041 1734.62 100.231 1734.62 100.59V122C1734.62 122.552 1734.18 123 1733.62 123H1733C1732.45 123 1732 122.552 1732 122V99Z" fill="#FF9F1C"/>
<path d="M1601 99C1601 98.4477 1601.45 98 1602 98H1602.26C1603.17 98 1603.57 99.144 1602.86 99.7115C1602.63 99.8938 1602.5 100.17 1602.5 100.462V122.25C1602.5 122.664 1602.16 123 1601.75 123C1601.34 123 1601 122.664 1601 122.25V99Z" fill="#FF9F1C"/>
<path d="M1721 99C1721 98.4477 1721.45 98 1722 98H1722.26C1723.17 98 1723.57 99.144 1722.86 99.7115C1722.63 99.8938 1722.5 100.17 1722.5 100.462V122.25C1722.5 122.664 1722.16 123 1721.75 123C1721.34 123 1721 122.664 1721 122.25V99Z" fill="#FF9F1C"/>
<path d="M1603 118.295C1603 118.132 1603.13 118 1603.29 118H1604.63C1604.86 118 1604.89 118.338 1604.66 118.375C1604.57 118.389 1604.5 118.468 1604.5 118.561V122.25C1604.5 122.664 1604.16 123 1603.75 123C1603.34 123 1603 122.664 1603 122.25V118.295Z" fill="#FF9F1C"/>
<path d="M1723 118.295C1723 118.132 1723.13 118 1723.29 118H1724.63C1724.86 118 1724.89 118.338 1724.66 118.375C1724.57 118.389 1724.5 118.468 1724.5 118.561V122.25C1724.5 122.664 1724.16 123 1723.75 123C1723.34 123 1723 122.664 1723 122.25V118.295Z" fill="#FF9F1C"/>
<rect x="1653" y="98" width="14" height="11" rx="2" fill="#FFE1B0"/>
<rect x="1670" y="98" width="14" height="11" rx="2" fill="#FFE1B0"/>
<rect x="1687" y="98" width="14" height="11" rx="2" fill="#FFE1B0"/>
<rect x="1748" y="98" width="14" height="11" rx="2" fill="#FFE1B0"/>
<rect x="1703.5" y="100" width="14" height="2" fill="#FF9F1C"/>
<rect x="1741" y="100" width="6" height="2" fill="#FF9F1C"/>
<rect x="1763" y="100" width="3" height="2" fill="#FF9F1C"/>
<rect x="1621" y="100" width="14" height="2" fill="#FF9F1C"/>
<rect x="1586" y="100" width="12" height="2" fill="#FF9F1C"/>
<circle cx="1783" cy="132" r="4" fill="#001A4A"/>
<circle cx="1923" cy="132" r="4" fill="#001A4A"/>
<circle cx="1801" cy="132" r="4" fill="#001A4A"/>
<circle cx="1941" cy="132" r="4" fill="#001A4A"/>
<path d="M1773.02 103C1773.01 108.5 1773.02 119 1773.01 123L1773 134H1776.7C1777.12 132 1778.02 130.5 1778.35 130.5H1805.93C1806.92 130.5 1807.17 132 1807.17 134H1915.83C1916.52 132.167 1918.06 131 1918.72 131H1942.18C1945.14 131 1946.98 132.167 1947.53 134H1957V89H1784.53H1773.02C1773.02 89 1773.02 97.7359 1773.02 103Z" fill="#436C5E"/>
<path d="M1774.5 131.5H1775.82C1776.1 130.833 1776.83 129.5 1777.5 129.5H1807.24C1807.91 129.5 1808.36 131.167 1808.5 132H1913.63C1914.05 132 1915.73 129.5 1916.15 129.5H1946.01C1947.35 129.5 1948.53 131.167 1948.95 132H1954V125H1774.5C1774.5 127 1774.5 129 1774.5 131.5Z" fill="#FF9F1C"/>
<rect x="1824" y="98" width="14" height="11" rx="2" fill="#FFE1B0"/>
<rect x="1788" y="98" width="9" height="25" rx="1" fill="#FFE1B0"/>
<rect x="1908" y="98" width="9" height="25" rx="1" fill="#FFE1B0"/>
<rect x="1799" y="98" width="9" height="25" rx="1" fill="#FFE1B0"/>
<rect x="1919" y="98" width="9" height="25" rx="1" fill="#FFE1B0"/>
<path d="M1800 99C1800 98.4477 1800.45 98 1801 98H1802.78C1803.77 98 1804.06 99.3442 1803.16 99.7546C1802.83 99.9041 1802.62 100.231 1802.62 100.59V122C1802.62 122.552 1802.18 123 1801.62 123H1801C1800.45 123 1800 122.552 1800 122V99Z" fill="#FF9F1C"/>
<path d="M1920 99C1920 98.4477 1920.45 98 1921 98H1922.78C1923.77 98 1924.06 99.3442 1923.16 99.7546C1922.83 99.9041 1922.62 100.231 1922.62 100.59V122C1922.62 122.552 1922.18 123 1921.62 123H1921C1920.45 123 1920 122.552 1920 122V99Z" fill="#FF9F1C"/>
<path d="M1789 99C1789 98.4477 1789.45 98 1790 98H1790.26C1791.17 98 1791.57 99.144 1790.86 99.7115C1790.63 99.8938 1790.5 100.17 1790.5 100.462V122.25C1790.5 122.664 1790.16 123 1789.75 123C1789.34 123 1789 122.664 1789 122.25V99Z" fill="#FF9F1C"/>
<path d="M1909 99C1909 98.4477 1909.45 98 1910 98H1910.26C1911.17 98 1911.57 99.144 1910.86 99.7115C1910.63 99.8938 1910.5 100.17 1910.5 100.462V122.25C1910.5 122.664 1910.16 123 1909.75 123C1909.34 123 1909 122.664 1909 122.25V99Z" fill="#FF9F1C"/>
<path d="M1791 118.295C1791 118.132 1791.13 118 1791.29 118H1792.63C1792.86 118 1792.89 118.338 1792.66 118.375C1792.57 118.389 1792.5 118.468 1792.5 118.561V122.25C1792.5 122.664 1792.16 123 1791.75 123C1791.34 123 1791 122.664 1791 122.25V118.295Z" fill="#FF9F1C"/>
<path d="M1911 118.295C1911 118.132 1911.13 118 1911.29 118H1912.63C1912.86 118 1912.89 118.338 1912.66 118.375C1912.57 118.389 1912.5 118.468 1912.5 118.561V122.25C1912.5 122.664 1912.16 123 1911.75 123C1911.34 123 1911 122.664 1911 122.25V118.295Z" fill="#FF9F1C"/>
<rect x="1841" y="98" width="14" height="11" rx="2" fill="#FFE1B0"/>
<rect x="1858" y="98" width="14" height="11" rx="2" fill="#FFE1B0"/>
<rect x="1875" y="98" width="14" height="11" rx="2" fill="#FFE1B0"/>
<rect x="1936" y="98" width="14" height="11" rx="2" fill="#FFE1B0"/>
<rect x="1891.5" y="100" width="14" height="2" fill="#FF9F1C"/>
<rect x="1929" y="100" width="6" height="2" fill="#FF9F1C"/>
<rect x="1951" y="100" width="3" height="2" fill="#FF9F1C"/>
<rect x="1809" y="100" width="14" height="2" fill="#FF9F1C"/>
<rect x="1774" y="100" width="12" height="2" fill="#FF9F1C"/>
</svg>
